<?xml version="1.0" encoding="UTF-8" standalone="no"?>
<svg
   xmlns:dc="http://purl.org/dc/elements/1.1/"
   xmlns:cc="http://creativecommons.org/ns#"
   xmlns:rdf="http://www.w3.org/1999/02/22-rdf-syntax-ns#"
   xmlns:svg="http://www.w3.org/2000/svg"
   xmlns="http://www.w3.org/2000/svg"
   viewBox="0 0 124.32 44.026669"
   height="44.026669"
   width="124.32"
   xml:space="preserve"
   id="svg2"
   version="1.1"><metadata
     id="metadata8"><rdf:RDF><cc:Work
         rdf:about=""><dc:format>image/svg+xml</dc:format><dc:type
           rdf:resource="http://purl.org/dc/dcmitype/StillImage" /></cc:Work></rdf:RDF></metadata><defs
     id="defs6" /><g
     transform="matrix(1.3333333,0,0,-1.3333333,0,44.026667)"
     id="g10"><g
       transform="scale(0.1)"
       id="g12"><path
         id="path14"
         style="fill:#00adef;fill-opacity:1;fill-rule:nonzero;stroke:none"
         d="M 238.16,198.148 H 16.0273 L 0,154.113 h 222.133 z m 24.008,66.051 H 40.0313 L 24.0039,220.164 H 246.141 Z m 8.02,22.016 H 48.0547 l 16.0234,44.031 H 286.215 l -16.027,-44.031" /><path
         id="path16"
         style="fill:#1a3476;fill-opacity:1;fill-rule:nonzero;stroke:none"
         d="m 468.043,140.785 v -0.918 c 10.055,-3.652 19.652,-10.054 24.68,-14.168 15.543,-12.797 22.398,-29.7107 22.398,-51.6521 0,-36.1094 -19.195,-62.1641 -50.734,-70.39065 C 454.785,0.914063 444.73,0 425.988,0 h -95.531 v 264.199 h 84.563 c 17.371,0 29.253,-0.914 39.765,-3.66 30.625,-8.226 50.738,-29.254 50.738,-62.617 0,-17.828 -6.398,-32.914 -16.914,-42.969 -4.57,-4.57 -10.968,-10.055 -20.566,-14.168 z M 383.48,112.902 V 43.4219 h 36.567 c 10.969,0 21.027,0.914 28.34,7.7734 7.312,6.8555 10.511,15.5391 10.511,26.9649 0,8.6875 -2.285,16.914 -6.855,22.8558 -7.77,9.601 -17.367,11.886 -33.824,11.886 z m -0.457,45.707 h 29.711 c 9.141,0 13.711,0 18.282,1.371 12.343,3.657 20.113,14.629 20.113,29.711 0,17.829 -8.227,25.598 -20.113,29.254 -5.028,1.371 -10.055,1.828 -20.11,1.828 H 383.023 Z M 594.656,0 V 219.859 H 518.32 v 44.34 h 212.09 l -15.082,-44.34 H 647.68 V 0 Z m 152.211,0 v 264.199 h 171.867 l -15.086,-44.34 H 799.434 v -58.507 h 42.507 c 34.282,0 52.11,-8.227 64.45,-18.739 9.597,-8.23 26.054,-26.511 26.054,-62.6247 0,-35.6524 -16.914,-55.3047 -31.082,-65.3594 C 884.906,3.19922 867.539,0 832.344,0 Z m 52.567,44.3359 h 39.765 c 15.082,0 24.227,3.6563 30.625,11.8868 3.199,4.1132 7.77,11.4257 7.77,25.1406 0,13.7109 -4.571,23.3087 -13.711,30.1677 -5.485,4.114 -12.797,6.399 -25.141,6.399 H 799.434 V 44.3359" /></g></g></svg>